<?xml version="1.0" standalone="no"?><!DOCTYPE svg PUBLIC "-//W3C//DTD SVG 1.1//EN" "http://www.w3.org/Graphics/SVG/1.1/DTD/svg11.dtd"><svg t="1583168287820" class="icon" viewBox="0 0 1024 1024" version="1.1" xmlns="http://www.w3.org/2000/svg" p-id="1241" width="32" height="32" xmlns:xlink="http://www.w3.org/1999/xlink"><defs><style type="text/css"></style></defs><path d="M503.4 959.2c-156.1 0-303.1-83.2-383.5-217.3l-45.8-76.3 87.2 17.3c44 8.8 88.9 8.6 133.2-0.6C382.6 664.4 458.3 613 507.8 538c49.5-75.1 66.8-164.9 48.7-253-11.8-57.3-38.4-110.7-76.9-154.4l-58.7-66.7 88.8 1.2c243.1 3.4 440.8 203.9 440.8 447 0 246.5-200.6 447.1-447.1 447.1zM238.3 768.1c68.5 71.4 163 112.3 265.1 112.3 203.1 0 368.3-165.2 368.3-368.3 0-171.6-119.6-317.4-279.8-357.4 19.4 35.7 33.5 74.3 41.8 114.4 46.1 224.4-98.9 444.4-323.3 490.5-24 5-48 7.8-72.1 8.5z" fill="#000000" p-id="1242"></path></svg>